<?xml version="1.0" encoding="utf-8"?>
<!-- Generator: Adobe Illustrator 23.1.1, SVG Export Plug-In . SVG Version: 6.00 Build 0)  -->
<svg version="1.1" baseProfile="tiny"
	 id="Layer_1" xmlns:cc="http://creativecommons.org/ns#" xmlns:dc="http://purl.org/dc/elements/1.1/" xmlns:inkscape="http://www.inkscape.org/namespaces/inkscape" xmlns:rdf="http://www.w3.org/1999/02/22-rdf-syntax-ns#" xmlns:sodipodi="http://sodipodi.sourceforge.net/DTD/sodipodi-0.dtd" xmlns:svg="http://www.w3.org/2000/svg"
	 xmlns="http://www.w3.org/2000/svg" xmlns:xlink="http://www.w3.org/1999/xlink" x="0px" y="0px" viewBox="0 0 179.2 121.3"
	 xml:space="preserve">
<g transform="translate(0,-952.36218)">
	<image width="185" height="129" xlink:href="28BD100307AD4C23.png"  transform="matrix(1 0 0 1 -2.5053 949.3896)">
	</image>
	<g>
		<path fill="#FFFFFF" d="M11.5,1013.2c0,1.2,0.7,2.8,1.5,3.5l41.2,43.8c1.9,2,5,2.2,7.3,0.2c2-1.8,2.1-5.3,0.2-7.3l-33.1-35.1H161
			c2.8,0,5.2-2.3,5.2-5.2c0-2.8-2.3-5.2-5.2-5.2H28.6l33.1-35.1c1.9-2,1.7-5.4-0.2-7.3c-2-2-5.4-1.8-7.3,0.2L13,1009.6
			C11.8,1010.8,11.6,1012,11.5,1013.2L11.5,1013.2z"/>
	</g>
</g>
</svg>
